<?xml version="1.0" encoding="UTF-8" standalone="no"?>
<svg
   xmlns:dc="http://purl.org/dc/elements/1.1/"
   xmlns:cc="http://creativecommons.org/ns#"
   xmlns:rdf="http://www.w3.org/1999/02/22-rdf-syntax-ns#"
   xmlns:svg="http://www.w3.org/2000/svg"
   xmlns="http://www.w3.org/2000/svg"
   viewBox="0 0 1122.52 755.90668"
   height="755.90668"
   width="1122.52"
   xml:space="preserve"
   id="svg2"
   version="1.1"><metadata
     id="metadata8"><rdf:RDF><cc:Work
         rdf:about=""><dc:format>image/svg+xml</dc:format><dc:type
           rdf:resource="http://purl.org/dc/dcmitype/StillImage" /></cc:Work></rdf:RDF></metadata><defs
     id="defs6" /><g
     transform="matrix(1.3333333,0,0,-1.3333333,0,755.90667)"
     id="g10"><g
       transform="scale(0.1)"
       id="g12"><path
         id="path14"
         style="fill:#ffffff;fill-opacity:1;fill-rule:nonzero;stroke:none"
         d="M 8418.9,0 H 0 V 5669.29 H 8418.9 V 0" /><path
         id="path16"
         style="fill:#899196;fill-opacity:1;fill-rule:nonzero;stroke:none"
         d="m 2546.14,1326.56 c -6.98,6.57 -16.75,9.85 -29.29,9.85 -8.97,0 -16.85,-1.89 -23.62,-5.67 -6.78,-3.78 -12.4,-8.77 -16.89,-14.96 -4.48,-6.17 -7.87,-13.2 -10.16,-21.05 -2.29,-7.89 -3.44,-15.91 -3.44,-24.07 0,-8.18 1.15,-16.19 3.44,-24.07 2.29,-7.87 5.68,-14.89 10.16,-21.07 4.49,-6.17 10.11,-11.15 16.89,-14.93 6.77,-3.8 14.65,-5.68 23.62,-5.68 5.77,0 11.25,1.09 16.43,3.28 5.18,2.19 9.76,5.23 13.75,9.12 3.99,3.88 7.28,8.51 9.86,13.9 2.59,5.37 4.19,11.24 4.78,17.63 h 18.84 c -2.59,-18.73 -9.47,-33.32 -20.63,-43.79 -11.16,-10.46 -25.5,-15.68 -43.03,-15.68 -11.77,0 -22.18,2.14 -31.24,6.41 -9.07,4.29 -16.69,10.12 -22.87,17.49 -6.18,7.37 -10.86,15.99 -14.05,25.85 -3.19,9.87 -4.78,20.38 -4.78,31.54 0,11.16 1.59,21.67 4.78,31.53 3.19,9.86 7.87,18.48 14.05,25.86 6.18,7.37 13.8,13.24 22.87,17.64 9.06,4.37 19.47,6.57 31.24,6.57 16.53,0 30.52,-4.39 41.99,-13.15 11.45,-8.78 18.27,-22.03 20.47,-39.75 h -18.83 c -2.59,11.55 -7.37,20.62 -14.34,27.2" /><path
         id="path18"
         style="fill:#899196;fill-opacity:1;fill-rule:nonzero;stroke:none"
         d="m 2624.15,1347.78 v -36.18 h 0.59 c 4.78,12.56 12.2,22.22 22.27,29.01 10.06,6.76 22.07,9.85 36.01,9.26 v -18.83 c -8.56,0.4 -16.34,-0.75 -23.31,-3.44 -6.98,-2.69 -13,-6.53 -18.08,-11.5 -5.08,-4.99 -9.02,-10.92 -11.81,-17.79 -2.79,-6.88 -4.18,-14.4 -4.18,-22.56 v -82.2 h -18.83 v 154.23 h 17.34" /><path
         id="path20"
         style="fill:#899196;fill-opacity:1;fill-rule:nonzero;stroke:none"
         d="m 2802.73,1302.04 c -2.29,6.58 -5.53,12.41 -9.71,17.49 -4.19,5.08 -9.27,9.15 -15.25,12.25 -5.97,3.09 -12.75,4.63 -20.32,4.63 -7.77,0 -14.65,-1.54 -20.62,-4.63 -5.98,-3.1 -11.06,-7.17 -15.25,-12.25 -4.18,-5.08 -7.52,-10.96 -10.01,-17.63 -2.5,-6.68 -4.14,-13.51 -4.93,-20.48 h 99.83 c -0.2,7.18 -1.45,14.05 -3.74,20.62 z m -93.25,-57.54 c 1.89,-7.27 4.93,-13.79 9.11,-19.58 4.19,-5.78 9.47,-10.55 15.84,-14.33 6.38,-3.8 14.06,-5.68 23.02,-5.68 13.75,0 24.51,3.58 32.29,10.76 7.76,7.16 13.15,16.74 16.13,28.69 h 18.83 c -3.99,-17.54 -11.31,-31.09 -21.97,-40.66 -10.66,-9.56 -25.75,-14.33 -45.28,-14.33 -12.15,0 -22.67,2.14 -31.53,6.41 -8.87,4.29 -16.1,10.17 -21.67,17.64 -5.58,7.47 -9.71,16.13 -12.41,26.01 -2.68,9.86 -4.03,20.26 -4.03,31.23 0,10.16 1.35,20.12 4.03,29.89 2.7,9.77 6.83,18.48 12.41,26.15 5.57,7.68 12.8,13.85 21.67,18.54 8.86,4.67 19.38,7.02 31.53,7.02 12.35,0 22.91,-2.5 31.68,-7.47 8.77,-4.99 15.89,-11.52 21.38,-19.58 5.47,-8.07 9.41,-17.34 11.8,-27.8 2.39,-10.46 3.39,-21.07 2.99,-31.83 h -118.66 c 0,-6.78 0.94,-13.8 2.84,-21.08" /><path
         id="path22"
         style="fill:#899196;fill-opacity:1;fill-rule:nonzero;stroke:none"
         d="m 2948.74,1277.83 c -1.2,-2.19 -3.49,-3.78 -6.87,-4.78 -3.39,-1 -6.38,-1.69 -8.97,-2.09 -7.97,-1.4 -16.19,-2.64 -24.66,-3.74 -8.46,-1.09 -16.19,-2.73 -23.16,-4.93 -6.97,-2.2 -12.71,-5.33 -17.19,-9.41 -4.48,-4.09 -6.72,-9.92 -6.72,-17.49 0,-4.78 0.94,-9.02 2.83,-12.7 1.9,-3.69 4.44,-6.88 7.63,-9.56 3.18,-2.71 6.87,-4.74 11.06,-6.13 4.19,-1.4 8.46,-2.09 12.85,-2.09 7.17,0 14.05,1.09 20.62,3.28 6.58,2.19 12.3,5.39 17.19,9.57 4.88,4.18 8.76,9.25 11.65,15.24 2.89,5.98 4.34,12.75 4.34,20.33 v 24.5 z m -94.15,46.03 c 3.19,6.58 7.52,11.95 13,16.14 5.48,4.19 11.91,7.28 19.29,9.27 7.36,1.98 15.53,2.99 24.5,2.99 6.77,0 13.55,-0.65 20.32,-1.94 6.78,-1.3 12.86,-3.74 18.24,-7.33 5.38,-3.58 9.76,-8.61 13.15,-15.1 3.38,-6.47 5.08,-14.89 5.08,-25.25 v -81.89 c 0,-7.58 3.69,-11.37 11.06,-11.37 2.19,0 4.19,0.4 5.98,1.21 v -15.85 c -2.2,-0.4 -4.14,-0.7 -5.83,-0.89 -1.69,-0.21 -3.84,-0.3 -6.43,-0.3 -4.78,0 -8.61,0.64 -11.5,1.94 -2.9,1.3 -5.14,3.14 -6.73,5.53 -1.59,2.39 -2.64,5.22 -3.14,8.51 -0.5,3.3 -0.75,6.93 -0.75,10.91 h -0.59 c -3.39,-4.98 -6.83,-9.4 -10.31,-13.3 -3.49,-3.89 -7.38,-7.13 -11.66,-9.71 -4.29,-2.59 -9.17,-4.59 -14.65,-5.97 -5.48,-1.4 -12.01,-2.09 -19.58,-2.09 -7.16,0 -13.89,0.84 -20.17,2.54 -6.28,1.68 -11.76,4.37 -16.44,8.06 -4.68,3.69 -8.37,8.36 -11.06,14.06 -2.69,5.67 -4.04,12.39 -4.04,20.17 0,10.75 2.4,19.17 7.18,25.26 4.78,6.07 11.11,10.7 18.98,13.88 7.87,3.2 16.73,5.43 26.6,6.74 9.86,1.29 19.88,2.54 30.04,3.73 3.99,0.4 7.47,0.9 10.46,1.5 2.99,0.59 5.48,1.64 7.47,3.13 1.99,1.49 3.54,3.54 4.64,6.12 1.09,2.6 1.64,5.99 1.64,10.18 0,6.37 -1.05,11.6 -3.14,15.69 -2.09,4.07 -4.98,7.32 -8.66,9.71 -3.69,2.39 -7.98,4.03 -12.86,4.93 -4.89,0.89 -10.11,1.34 -15.69,1.34 -11.95,0 -21.72,-2.83 -29.29,-8.52 -7.58,-5.67 -11.56,-14.79 -11.96,-27.34 h -18.83 c 0.6,8.96 2.49,16.74 5.68,23.31" /><path
         id="path24"
         style="fill:#899196;fill-opacity:1;fill-rule:nonzero;stroke:none"
         d="m 3067.1,1347.78 v -15.85 h -31.38 v -104.02 c 0,-6.17 0.84,-11 2.54,-14.49 1.69,-3.49 5.93,-5.43 12.7,-5.83 5.39,0 10.76,0.29 16.14,0.9 v -15.84 c -2.79,0 -5.58,-0.1 -8.36,-0.29 -2.8,-0.21 -5.59,-0.31 -8.37,-0.31 -12.56,0 -21.33,2.44 -26.31,7.33 -4.98,4.87 -7.37,13.89 -7.17,27.04 v 105.51 h -26.9 v 15.85 h 26.9 v 46.32 h 18.83 v -46.32 h 31.38" /><path
         id="path26"
         style="fill:#899196;fill-opacity:1;fill-rule:nonzero;stroke:none"
         d="m 3113.43,1347.78 v -154.23 h -18.83 v 154.23 z m 0,59.18 v -30.2 h -18.83 v 30.2 h 18.83" /><path
         id="path28"
         style="fill:#899196;fill-opacity:1;fill-rule:nonzero;stroke:none"
         d="m 3153.18,1347.78 48.42,-135.4 h 0.6 l 47.83,135.4 h 19.43 l -57.69,-154.23 h -20.03 l -59.48,154.23 h 20.92" /><path
         id="path30"
         style="fill:#899196;fill-opacity:1;fill-rule:nonzero;stroke:none"
         d="m 3395.14,1302.04 c -2.29,6.58 -5.53,12.41 -9.71,17.49 -4.19,5.08 -9.27,9.15 -15.25,12.25 -5.98,3.09 -12.75,4.63 -20.32,4.63 -7.77,0 -14.65,-1.54 -20.63,-4.63 -5.97,-3.1 -11.06,-7.17 -15.24,-12.25 -4.18,-5.08 -7.52,-10.96 -10.01,-17.63 -2.5,-6.68 -4.14,-13.51 -4.94,-20.48 h 99.84 c -0.2,7.18 -1.45,14.05 -3.74,20.62 z m -93.26,-57.54 c 1.89,-7.27 4.94,-13.79 9.12,-19.58 4.19,-5.78 9.46,-10.55 15.84,-14.33 6.38,-3.8 14.05,-5.68 23.02,-5.68 13.75,0 24.51,3.58 32.28,10.76 7.77,7.16 13.15,16.74 16.14,28.69 h 18.83 c -3.99,-17.54 -11.31,-31.09 -21.97,-40.66 -10.66,-9.56 -25.76,-14.33 -45.28,-14.33 -12.15,0 -22.67,2.14 -31.54,6.41 -8.86,4.29 -16.09,10.17 -21.66,17.64 -5.59,7.47 -9.72,16.13 -12.41,26.01 -2.69,9.86 -4.04,20.26 -4.04,31.23 0,10.16 1.35,20.12 4.04,29.89 2.69,9.77 6.82,18.48 12.41,26.15 5.57,7.68 12.8,13.85 21.66,18.54 8.87,4.67 19.39,7.02 31.54,7.02 12.35,0 22.91,-2.5 31.68,-7.47 8.76,-4.99 15.89,-11.52 21.37,-19.58 5.48,-8.07 9.41,-17.34 11.81,-27.8 2.39,-10.46 3.39,-21.07 2.99,-31.83 h -118.67 c 0,-6.78 0.95,-13.8 2.84,-21.08" /><path
         id="path32"
         style="fill:#899196;fill-opacity:1;fill-rule:nonzero;stroke:none"
         d="m 3646.81,1294.42 c -1.9,7.87 -4.89,14.9 -8.97,21.07 -4.09,6.17 -9.32,11.21 -15.69,15.1 -6.38,3.89 -14.05,5.82 -23.02,5.82 -9.96,0 -18.38,-1.93 -25.26,-5.82 -6.87,-3.89 -12.45,-8.93 -16.73,-15.1 -4.29,-6.17 -7.38,-13.2 -9.27,-21.07 -1.9,-7.87 -2.84,-15.79 -2.84,-23.76 0,-7.97 0.94,-15.89 2.84,-23.76 1.89,-7.87 4.98,-14.9 9.27,-21.08 4.28,-6.17 9.86,-11.2 16.73,-15.08 6.88,-3.9 15.3,-5.83 25.26,-5.83 8.97,0 16.64,1.93 23.02,5.83 6.37,3.88 11.6,8.91 15.69,15.08 4.08,6.18 7.07,13.21 8.97,21.08 1.89,7.87 2.84,15.79 2.84,23.76 0,7.97 -0.95,15.89 -2.84,23.76 z m -101.78,112.54 v -88.47 h 0.6 c 1.99,5.57 4.83,10.46 8.52,14.64 3.68,4.18 7.92,7.71 12.7,10.61 4.78,2.88 9.96,5.03 15.54,6.43 5.58,1.4 11.16,2.09 16.74,2.09 11.75,0 21.97,-2.2 30.64,-6.57 8.66,-4.4 15.89,-10.33 21.67,-17.8 5.78,-7.46 10.06,-16.14 12.85,-25.99 2.79,-9.88 4.18,-20.29 4.18,-31.24 0,-10.97 -1.39,-21.37 -4.18,-31.23 -2.79,-9.88 -7.07,-18.54 -12.85,-26.01 -5.78,-7.47 -13.01,-13.35 -21.67,-17.64 -8.67,-4.27 -18.89,-6.41 -30.64,-6.41 -12.55,0 -23.76,2.88 -33.62,8.66 -9.87,5.78 -16.99,14.05 -21.37,24.8 h -0.6 v -29.28 h -17.34 v 213.41 h 18.83" /><path
         id="path34"
         style="fill:#899196;fill-opacity:1;fill-rule:nonzero;stroke:none"
         d="m 3804.92,1302.04 c -2.3,6.58 -5.53,12.41 -9.71,17.49 -4.19,5.08 -9.27,9.15 -15.25,12.25 -5.98,3.09 -12.75,4.63 -20.32,4.63 -7.77,0 -14.65,-1.54 -20.63,-4.63 -5.98,-3.1 -11.06,-7.17 -15.25,-12.25 -4.18,-5.08 -7.51,-10.96 -10,-17.63 -2.5,-6.68 -4.14,-13.51 -4.94,-20.48 h 99.83 c -0.19,7.18 -1.44,14.05 -3.73,20.62 z m -93.26,-57.54 c 1.89,-7.27 4.94,-13.79 9.12,-19.58 4.19,-5.78 9.46,-10.55 15.84,-14.33 6.38,-3.8 14.05,-5.68 23.02,-5.68 13.74,0 24.51,3.58 32.28,10.76 7.77,7.16 13.15,16.74 16.14,28.69 h 18.82 c -3.98,-17.54 -11.3,-31.09 -21.96,-40.66 -10.67,-9.56 -25.76,-14.33 -45.28,-14.33 -12.16,0 -22.68,2.14 -31.54,6.41 -8.87,4.29 -16.09,10.17 -21.66,17.64 -5.59,7.47 -9.72,16.13 -12.41,26.01 -2.69,9.86 -4.04,20.26 -4.04,31.23 0,10.16 1.35,20.12 4.04,29.89 2.69,9.77 6.82,18.48 12.41,26.15 5.57,7.68 12.79,13.85 21.66,18.54 8.86,4.67 19.38,7.02 31.54,7.02 12.35,0 22.91,-2.5 31.68,-7.47 8.76,-4.99 15.89,-11.52 21.37,-19.58 5.48,-8.07 9.41,-17.34 11.81,-27.8 2.38,-10.46 3.39,-21.07 2.99,-31.83 h -118.67 c 0,-6.78 0.95,-13.8 2.84,-21.08" /><path
         id="path36"
         style="fill:#899196;fill-opacity:1;fill-rule:nonzero;stroke:none"
         d="m 3950.93,1277.83 c -1.19,-2.19 -3.48,-3.78 -6.87,-4.78 -3.39,-1 -6.38,-1.69 -8.97,-2.09 -7.97,-1.4 -16.19,-2.64 -24.66,-3.74 -8.47,-1.09 -16.19,-2.73 -23.16,-4.93 -6.98,-2.2 -12.7,-5.33 -17.19,-9.41 -4.48,-4.09 -6.72,-9.92 -6.72,-17.49 0,-4.78 0.94,-9.02 2.84,-12.7 1.89,-3.69 4.43,-6.88 7.62,-9.56 3.19,-2.71 6.87,-4.74 11.06,-6.13 4.18,-1.4 8.46,-2.09 12.85,-2.09 7.17,0 14.05,1.09 20.62,3.28 6.58,2.19 12.3,5.39 17.19,9.57 4.88,4.18 8.77,9.25 11.66,15.24 2.88,5.98 4.33,12.75 4.33,20.33 v 24.5 z m -94.15,46.03 c 3.19,6.58 7.52,11.95 13,16.14 5.48,4.19 11.91,7.28 19.28,9.27 7.38,1.98 15.54,2.99 24.51,2.99 6.77,0 13.55,-0.65 20.32,-1.94 6.78,-1.3 12.86,-3.74 18.24,-7.33 5.38,-3.58 9.76,-8.61 13.15,-15.1 3.39,-6.47 5.08,-14.89 5.08,-25.25 v -81.89 c 0,-7.58 3.68,-11.37 11.06,-11.37 2.19,0 4.19,0.4 5.98,1.21 v -15.85 c -2.19,-0.4 -4.14,-0.7 -5.83,-0.89 -1.7,-0.21 -3.84,-0.3 -6.43,-0.3 -4.78,0 -8.62,0.64 -11.51,1.94 -2.89,1.3 -5.13,3.14 -6.72,5.53 -1.6,2.39 -2.64,5.22 -3.14,8.51 -0.5,3.3 -0.75,6.93 -0.75,10.91 h -0.59 c -3.4,-4.98 -6.83,-9.4 -10.32,-13.3 -3.48,-3.89 -7.37,-7.13 -11.65,-9.71 -4.29,-2.59 -9.17,-4.59 -14.64,-5.97 -5.49,-1.4 -12.02,-2.09 -19.58,-2.09 -7.18,0 -13.91,0.84 -20.18,2.54 -6.28,1.68 -11.76,4.37 -16.44,8.06 -4.68,3.69 -8.37,8.36 -11.06,14.06 -2.69,5.67 -4.03,12.39 -4.03,20.17 0,10.75 2.38,19.17 7.17,25.26 4.78,6.07 11.1,10.7 18.98,13.88 7.86,3.2 16.74,5.43 26.6,6.74 9.86,1.29 19.88,2.54 30.04,3.73 3.98,0.4 7.47,0.9 10.46,1.5 2.99,0.59 5.48,1.64 7.47,3.13 1.99,1.49 3.54,3.54 4.64,6.12 1.09,2.6 1.64,5.99 1.64,10.18 0,6.37 -1.05,11.6 -3.14,15.69 -2.09,4.07 -4.98,7.32 -8.66,9.71 -3.69,2.39 -7.98,4.03 -12.85,4.93 -4.89,0.89 -10.13,1.34 -15.7,1.34 -11.96,0 -21.72,-2.83 -29.3,-8.52 -7.57,-5.67 -11.55,-14.79 -11.95,-27.34 h -18.83 c 0.6,8.96 2.49,16.74 5.68,23.31" /><path
         id="path38"
         style="fill:#899196;fill-opacity:1;fill-rule:nonzero;stroke:none"
         d="m 4115.63,1193.55 v 27.79 h -0.61 c -4.98,-10.36 -12.2,-18.28 -21.67,-23.76 -9.46,-5.48 -19.98,-8.21 -31.53,-8.21 -9.76,0 -18.08,1.34 -24.95,4.03 -6.88,2.69 -12.46,6.52 -16.75,11.51 -4.28,4.98 -7.42,11.05 -9.41,18.23 -1.99,7.17 -2.99,15.33 -2.99,24.5 v 100.14 h 18.83 v -100.43 c 0.4,-13.96 3.64,-24.52 9.71,-31.68 6.08,-7.18 16.6,-10.76 31.54,-10.76 8.17,0 15.14,1.73 20.92,5.23 5.78,3.48 10.56,8.11 14.35,13.89 3.78,5.78 6.57,12.41 8.37,19.88 1.79,7.47 2.69,15.1 2.69,22.86 v 81.01 h 18.83 v -154.23 h -17.33" /><path
         id="path40"
         style="fill:#899196;fill-opacity:1;fill-rule:nonzero;stroke:none"
         d="m 4229.8,1347.78 v -15.85 h -31.39 v -104.02 c 0,-6.17 0.85,-11 2.54,-14.49 1.69,-3.49 5.93,-5.43 12.71,-5.83 5.37,0 10.75,0.29 16.14,0.9 v -15.84 c -2.8,0 -5.58,-0.1 -8.37,-0.29 -2.79,-0.21 -5.59,-0.31 -8.37,-0.31 -12.56,0 -21.33,2.44 -26.31,7.33 -4.98,4.87 -7.37,13.89 -7.17,27.04 v 105.51 h -26.9 v 15.85 h 26.9 v 46.32 h 18.83 v -46.32 h 31.39" /><path
         id="path42"
         style="fill:#899196;fill-opacity:1;fill-rule:nonzero;stroke:none"
         d="m 4259.69,1347.78 50.81,-131.52 47.53,131.52 h 18.83 l -66.97,-177.54 c -2.78,-6.58 -5.37,-12 -7.76,-16.3 -2.39,-4.28 -5.04,-7.67 -7.92,-10.17 -2.89,-2.48 -6.28,-4.27 -10.17,-5.37 -3.87,-1.09 -8.81,-1.65 -14.79,-1.65 -3.78,0.21 -6.72,0.35 -8.82,0.45 -2.09,0.11 -3.93,0.45 -5.53,1.05 v 15.84 c 2.2,-0.4 4.34,-0.75 6.43,-1.04 2.09,-0.3 4.24,-0.45 6.42,-0.45 4.19,0 7.63,0.6 10.32,1.79 2.69,1.2 5.04,2.84 7.02,4.93 2,2.09 3.69,4.63 5.08,7.62 1.4,2.99 2.89,6.29 4.49,9.87 l 6.57,17.33 -61.57,153.64 h 20.03" /><path
         id="path44"
         style="fill:#991554;fill-opacity:1;fill-rule:nonzero;stroke:none"
         d="m 4555.59,2329.67 c 93.23,7.41 229.88,-46.38 453.76,-347.67 172.72,-232.41 217.11,-310.58 187.11,-337.41 -41.47,-37.08 -98.58,54.73 -308.97,322.72 -167.43,213.26 -283.92,182.02 -353.13,212.19 -87.02,37.95 -59.15,143.75 21.23,150.17" /><path
         id="path46"
         style="fill:#991554;fill-opacity:1;fill-rule:nonzero;stroke:none"
         d="m 4241.99,2659.06 c 4.89,10.58 15.56,22.6 61.58,12.22 66.61,-15.02 132.52,-68.78 189.37,-178.72 50.9,-98.52 57.49,-130.05 49,-134.64 -8.85,-4.74 -29.38,38.89 -57.56,94.83 -34.04,67.56 -83.46,131.33 -177.15,152.25 -60.75,13.56 -72.82,37.69 -65.24,54.06" /><path
         id="path48"
         style="fill:#991554;fill-opacity:1;fill-rule:nonzero;stroke:none"
         d="m 4146.75,2524.06 c 1.21,11.08 7.23,25.22 52.11,29.78 64.93,6.62 140.99,-22.12 225.91,-104.5 76.05,-73.82 91.61,-100.39 85.27,-107.12 -6.55,-7.01 -38.4,26.28 -80.92,68.46 -51.41,50.88 -115.56,93.7 -206.83,84.2 -59.14,-6.17 -77.4,12.02 -75.54,29.18" /><path
         id="path50"
         style="fill:#ffccdf;fill-opacity:1;fill-rule:nonzero;stroke:none"
         d="m 4974.27,2764.87 c -23.29,-240.07 -10.09,-614.2 225.53,-818.05 235.62,-203.84 493.7,-124.14 691.66,-376.48 197.93,-252.43 172,-240.64 270.46,-250.93 98.43,-10.33 212.82,165.91 47.44,262.84 -165.36,96.94 -236.55,229.27 -233.31,346.56 3.26,117.3 -45.39,326.85 -401.92,291.83 -356.53,-34.99 -244.02,123.27 -175.31,192.12 68.73,68.8 295.18,278.49 417.49,651.12 118.05,359.61 -78.51,666.92 -331.93,735.11 -295.07,79.39 -499.57,63.07 -445.7,236.73 87.48,282.17 40.28,453.58 -129.72,437.04 -190.01,-18.53 -136.87,-275.09 -77.05,-458.81 56.12,-172.38 187.35,-785.11 142.36,-1249.08" /><path
         id="path52"
         style="fill:#e35991;fill-opacity:1;fill-rule:nonzero;stroke:none"
         d="m 5931.55,1666.9 c -26.22,68.16 -145.61,250.47 -152.95,261.99 -109.73,172.74 -174.9,230.92 -378.27,217.98 -154.33,-9.85 -205.61,36.87 -113.15,157.63 35.23,46.82 317.17,367.95 296.79,683 -12.41,135.8 -53.65,253.18 -153.97,326.49 -273.64,199.92 -441.43,62.12 -458.63,-75.53 13.57,-160.21 17.34,-324.56 2.9,-473.59 -23.29,-240.07 -10.09,-614.2 225.53,-818.05 219.59,-189.96 458.46,-133.89 650.46,-329.41 52.11,-53.07 106.68,-16.52 81.29,49.49" /><path
         id="path54"
         style="fill:#f792ba;fill-opacity:1;fill-rule:nonzero;stroke:none"
         d="m 6025.16,1668.05 c -59.46,115.92 -159.63,352.68 -296.2,459.83 -58.23,45.69 -149.89,56.59 -241.72,55.86 -129.95,-0.97 -185.15,9.59 -199.89,43.65 -36.2,83.6 214.35,262.88 367.52,598.44 10.35,22.68 18.7,46.73 27.24,71.17 104.97,298.38 -87.9,617.71 -282.24,717.35 -259.24,132.93 -482.61,67.03 -449.92,-179.93 7.55,-57.04 16.55,-149.39 21.17,-198.06 15.76,138.33 183.85,278.57 458.88,77.63 167.44,-122.39 276.17,-478.36 -98.47,-953.31 -0.08,-0.12 -0.19,-0.27 -0.3,-0.36 -36.48,-47.2 -111.96,-128.15 -84.09,-177.49 22.03,-36.86 93.86,-38.63 136.8,-36.79 214.31,8.11 257.34,-17.58 394.66,-217.15 19.45,-27.71 71.96,-111.74 110.63,-179.72 11.45,-19.91 34.83,-60.72 42.32,-82.27 20.95,-60.32 -13.51,-93.85 -72.51,-58.39 156.98,-181.55 247.54,-99.23 166.12,59.54" /><path
         id="path56"
         style="fill:#bf3272;fill-opacity:1;fill-rule:nonzero;stroke:none"
         d="m 5313.47,2109.95 c -66.13,-8.47 -103.1,13.04 -113.19,41.48 -8.89,25.12 4.19,54.39 16.1,78.7 0,0 92.83,160.86 183.11,342.39 31.66,63.65 77.25,222.61 4.41,340.07 -124.53,200.82 -279.28,173.04 -342.8,119.8 -83.74,-70.25 -80.49,-195 -86.83,-267.52 -22.13,-253.32 -10.09,-614.2 225.53,-818.05 169.35,-146.48 350.28,-146.53 512.17,-228.64 88.66,-33.6 33.98,101.14 -4.16,173.02 -56.89,107.2 -106.84,255.73 -394.34,218.75" /><path
         id="path58"
         style="fill:#991554;fill-opacity:1;fill-rule:nonzero;stroke:none"
         d="m 5594.35,1886.7 c -1.71,77.47 -107.57,176.99 -189.28,185.24 -81.68,8.24 -229.3,-24.22 -248.31,41.48 -19.02,65.67 27.86,126.6 107.06,256.47 79.25,129.88 98.13,210.24 30.35,304.51 -97.22,135.25 -238.31,98.93 -268.18,-56.68 -19.89,-103.53 -0.8,-314.09 6.6,-370.08 15.1,-114.07 59.71,-208.14 154.19,-279.2 115.3,-86.72 409.47,-168.51 407.57,-81.74" /><path
         id="path60"
         style="fill:#ffccdf;fill-opacity:1;fill-rule:nonzero;stroke:none"
         d="m 4948.52,2171.22 c -75.84,188.68 -92.17,394.61 -92.56,533.57 -0.79,277.62 -42.77,652.83 -231.23,779.81 -80.73,54.4 -169.12,21.33 -246.92,16.18 -83.04,-5.49 -134.57,14.25 -154.5,100.99 -62.77,272.94 -181.73,404.81 -310.91,333.01 -144.32,-80.22 19.67,-283.52 154.6,-421.71 126.61,-129.66 521.7,-613.7 704.53,-1028.99 41.2,-93.68 100.03,-206.91 176.99,-312.86" /><path
         id="path62"
         style="fill:#e35991;fill-opacity:1;fill-rule:nonzero;stroke:none"
         d="m 4387.29,3120.54 c 140.68,-192.15 290.39,-423.31 384.24,-636.46 2.35,-5.38 4.99,-11.03 7.45,-16.51 -8.51,40.44 -45.35,183.86 -83.47,315.03 -56.24,193.54 -122.94,315.46 -241.38,337.73 -30.41,5.72 -51.77,3.93 -66.84,0.21" /><path
         id="path64"
         style="fill:#f792ba;fill-opacity:1;fill-rule:nonzero;stroke:none"
         d="m 4738.42,2829.32 c -38.27,271.45 -135.66,486.28 -291.66,536.39 -109.89,35.28 -177.54,-8.04 -197.18,-64.99 43.16,-54.02 89.92,-114.85 137.71,-180.14 0.15,0.02 0.32,0.04 0.49,0.08 15.05,3.63 36.26,5.34 66.35,-0.33 118.44,-22.27 185.14,-144.19 241.38,-337.73 38.16,-131.36 75.06,-274.98 83.52,-315.22 30.56,-67.57 70.02,-144.01 118.34,-220.12 0.12,0.25 0.25,0.57 0.35,0.85 -94.59,163.49 -135.36,411.14 -159.3,581.21" /><path
         id="path66"
         style="fill:#808e91;fill-opacity:1;fill-rule:nonzero;stroke:none"
         d="m 2692.68,1681.22 c 0,32.75 -6.83,58.19 -20.46,76.39 -13.65,19.08 -32.29,28.64 -55.93,28.64 -25.46,0 -45,-9.11 -58.64,-27.28 -13.64,-19.09 -20.46,-45 -20.46,-77.75 0,-38.18 6.35,-65.92 19.09,-83.19 13.64,-19.09 32.74,-28.64 57.28,-28.64 25.45,0 45.01,9.55 58.66,28.64 13.63,19.09 20.46,46.83 20.46,83.19 z m -155.49,240.04 v -109.11 c 10,17.28 24.55,31.38 43.64,42.29 16.37,9.07 36.36,13.64 60.01,13.64 42.73,0 77.75,-17.73 105.02,-53.19 27.28,-35.46 40.92,-81.39 40.92,-137.76 0,-56.38 -13.64,-102.28 -40.92,-137.74 -13.63,-17.29 -32.05,-29.8 -55.23,-37.51 -23.19,-7.72 -46.16,-11.59 -68.88,-11.59 -43.64,0 -84.11,11.35 -121.38,34.09 -37.3,22.72 -55.92,66.37 -55.92,130.93 v 312.33 h 46.37 c 12.72,0 23.64,-4.56 32.73,-13.64 9.08,-9.09 13.64,-20.01 13.64,-32.74" /><path
         id="path68"
         style="fill:#808e91;fill-opacity:1;fill-rule:nonzero;stroke:none"
         d="m 3133.53,1859.9 v -212.77 c 0,-64.57 -16.84,-106.85 -50.46,-126.84 -33.66,-20 -70.48,-30 -110.48,-30 -39.1,1.83 -74.8,12.72 -107.06,32.73 -32.29,19.99 -48.42,61.37 -48.42,124.11 v 212.77 h 95.47 v -231.87 c 0,-21.82 6.36,-37.73 19.1,-47.72 12.72,-10.02 27.28,-15.01 43.64,-15.01 16.36,0 31.14,4.99 44.32,15.01 13.18,9.99 19.78,25.9 19.78,47.72 v 185.49 c 0,12.72 4.31,23.64 12.96,32.73 8.63,9.08 19.78,13.65 33.42,13.65 h 47.73" /><path
         id="path70"
         style="fill:#808e91;fill-opacity:1;fill-rule:nonzero;stroke:none"
         d="m 3323.43,1497.1 c -30,-1.8 -62.52,-1.35 -97.51,1.36 -35.02,2.73 -52.51,25.01 -52.51,66.84 v 400.98 h 49.09 c 11.81,0 22.28,-4.57 31.38,-13.64 9.07,-9.1 13.63,-20.01 13.63,-32.73 v -61.38 h 55.92 v -19.09 c 0,-13.65 -4.55,-24.79 -13.64,-33.42 -9.09,-8.64 -20,-12.95 -32.73,-12.95 h -9.55 V 1591.2 c 0,-15.46 9.08,-23.18 27.28,-23.18 h 28.64 v -70.92" /><path
         id="path72"
         style="fill:#808e91;fill-opacity:1;fill-rule:nonzero;stroke:none"
         d="m 3506.52,1497.1 c -30.01,-1.8 -62.53,-1.35 -97.52,1.36 -35.02,2.73 -52.5,25.01 -52.5,66.84 v 400.98 h 49.1 c 11.8,0 22.27,-4.57 31.36,-13.64 9.08,-9.1 13.64,-20.01 13.64,-32.73 v -61.38 h 55.92 v -19.09 c 0,-13.65 -4.56,-24.79 -13.63,-33.42 -9.11,-8.64 -20.02,-12.95 -32.74,-12.95 h -9.55 V 1591.2 c 0,-15.46 9.08,-23.18 27.29,-23.18 h 28.63 v -70.92" /><path
         id="path74"
         style="fill:#808e91;fill-opacity:1;fill-rule:nonzero;stroke:none"
         d="m 3617.32,1715.33 h 139.11 c -1.83,24.55 -8.18,42.72 -19.09,54.55 -11.83,12.72 -28.64,19.09 -50.47,19.09 -20,0 -36.37,-6.37 -49.09,-19.09 -12.75,-12.75 -19.57,-30.92 -20.46,-54.55 z m 163.67,-106.38 h 68.18 c -10.01,-38.2 -29.1,-67.31 -57.27,-87.3 -28.19,-20.91 -63.66,-31.36 -106.39,-31.36 -51.83,0 -92.29,16.81 -121.38,50.46 -29.12,32.73 -43.65,79.55 -43.65,140.47 0,58.19 14.1,103.66 42.29,136.39 29.08,33.63 69.55,50.47 121.39,50.47 54.54,0 96.83,-16.37 126.83,-49.1 29.09,-33.65 43.64,-80.47 43.64,-140.48 0,-3.64 0,-6.82 0,-9.55 0,-2.73 0,-4.55 0,-5.46 0,-4.55 -0.47,-7.74 -1.36,-9.54 h -235.95 c 0.89,-28.2 7.71,-49.1 20.46,-62.75 11.8,-14.55 29.53,-21.81 53.19,-21.81 15.45,0 28.64,3.18 39.54,9.55 2.73,0.9 5.23,2.49 7.51,4.77 2.26,2.26 4.78,4.77 7.51,7.49 0.89,2.74 4.29,6.36 10.22,10.92 5.91,4.53 14.32,6.83 25.24,6.83" /><path
         id="path76"
         style="fill:#808e91;fill-opacity:1;fill-rule:nonzero;stroke:none"
         d="m 3883.59,1497.1 v 175.95 c 0,35.46 5.22,65.22 15.69,89.33 10.44,24.08 24.76,43.4 42.96,57.95 17.26,13.65 37.51,23.65 60.69,30.02 23.19,6.34 47.06,9.55 71.61,9.55 1.81,0 4.09,0 6.82,0 2.72,0 4.98,0 6.81,0 v -96.84 h -31.36 c -26.39,0 -45.93,-6.38 -58.66,-19.09 -12.73,-12.75 -19.08,-32.74 -19.08,-60.02 V 1497.1 h -95.48" /><path
         id="path78"
         style="fill:#808e91;fill-opacity:1;fill-rule:nonzero;stroke:none"
         d="m 4111.69,1497.1 v 373.7 c 0,32.74 8.64,57.28 25.92,73.66 16.36,15.45 43.17,23.18 80.46,23.18 9.08,0 16.36,-0.47 21.82,-1.36 9.99,0 17.73,-0.47 23.19,-1.37 v -75.01 h -24.55 c -12.74,0 -21.83,-1.83 -27.28,-5.46 -4.56,-3.64 -6.82,-10.9 -6.82,-21.82 v -24.55 h 58.65 v -20.46 c 0,-13.63 -4.56,-24.78 -13.65,-33.41 -9.09,-8.65 -19.56,-12.97 -31.36,-12.97 h -13.64 V 1497.1 h -92.74" /><path
         id="path80"
         style="fill:#808e91;fill-opacity:1;fill-rule:nonzero;stroke:none"
         d="m 4287.95,1966.28 h 49.1 c 12.73,0 23.64,-4.32 32.74,-12.97 9.08,-8.65 13.64,-19.32 13.64,-32.05 V 1497.1 h -95.48 v 469.18" /><path
         id="path82"
         style="fill:#808e91;fill-opacity:1;fill-rule:nonzero;stroke:none"
         d="m 4465.59,1368.9 v 75.02 h 25.91 c 18.19,0 32.5,4.33 42.97,12.95 10.43,8.65 12.48,22.51 6.14,41.59 l -126.85,361.44 h 105.02 l 73.65,-256.41 64.1,223.67 c 5.45,21.82 19.99,32.74 43.65,32.74 h 65.45 l -139.11,-413.26 c -10.91,-30.01 -24.54,-51.35 -40.91,-64.1 -16.36,-10.91 -43.2,-16.37 -80.47,-16.37 -2.72,0 -5.92,0 -9.54,0 -3.65,0 -6.82,0 -9.56,0 -2.72,0.92 -6.13,1.61 -10.23,2.06 -4.08,0.45 -7.49,0.67 -10.22,0.67" /></g></g></svg>